<?xml version="1.0" encoding="UTF-8"?>
<svg version="1.1" xmlns="http://www.w3.org/2000/svg" width="1254" height="1254">
<path d="M0 0 C413.82 0 827.64 0 1254 0 C1254 413.82 1254 827.64 1254 1254 C840.18 1254 426.36 1254 0 1254 C0 840.18 0 426.36 0 0 Z " fill="#FEFDFD" transform="translate(0,0)"/>
<path d="M0 0 C1.12817394 -0.00551503 1.12817394 -0.00551503 2.27913928 -0.01114148 C4.78349172 -0.02209845 7.28780256 -0.02600857 9.79217529 -0.02983093 C11.59487029 -0.03610193 13.39756401 -0.04274929 15.20025635 -0.04974365 C21.10946768 -0.07072165 27.01867907 -0.08114444 32.92791748 -0.09111023 C34.9702633 -0.09516099 37.01260898 -0.099278 39.05495453 -0.10346031 C48.65887364 -0.12250312 58.26278514 -0.13673258 67.86671948 -0.14507228 C78.910069 -0.15482285 89.95321691 -0.18108913 100.99649549 -0.22157317 C109.55822318 -0.25186953 118.11989356 -0.26655414 126.68167377 -0.26985329 C131.78235258 -0.27218956 136.88281585 -0.28096188 141.98343658 -0.30631447 C146.79343858 -0.32983619 151.6030868 -0.33373312 156.41313171 -0.32355309 C158.16285641 -0.32306331 159.91259999 -0.32921528 161.66226959 -0.34310913 C191.52127889 -0.56663133 216.45242205 9.1859717 238.28729248 29.77217102 C257.29669829 49.28809705 264.67140651 75.55187943 264.59075928 102.19380188 C264.24911243 118.94266415 260.52064551 134.25782043 253.1161499 149.29389954 C252.11082022 151.30292158 252.11082022 151.30292158 251.14666748 154.14326477 C248.75794462 156.63394531 247.8409134 156.51110122 244.46307373 156.71357727 C242.48788302 156.73022214 240.51247006 156.72780783 238.53729248 156.70967102 C219.31657473 157.0527911 203.59958357 161.77861531 189.22479248 175.14717102 C184.19027235 180.38234232 180.63294963 185.99376298 177.48651123 192.48310852 C177.01151184 193.44833435 177.01151184 193.44833435 176.5269165 194.43305969 C175.755368 196.00238498 174.98948514 197.57449365 174.22479248 199.14717102 C150.33615143 199.26439592 126.44755401 199.35234995 102.55868244 199.40623188 C91.46462148 199.43192426 80.37074008 199.46690172 69.27679443 199.52436829 C59.5981218 199.5744795 49.91957931 199.60652704 40.24078053 199.61761349 C35.12421136 199.62408568 30.00801427 199.63910623 24.89156532 199.6758213 C-6.71993736 199.89363045 -34.21615057 198.98335875 -59.77520752 178.14717102 C-61.05137939 177.11656555 -61.05137939 177.11656555 -62.35333252 176.06513977 C-81.09711768 160.10992387 -91.22188857 137.25923285 -93.77520752 113.14717102 C-95.05472939 92.48981303 -93.87938296 73.93879776 -84.77520752 55.14717102 C-84.00370361 53.5442218 -84.00370361 53.5442218 -83.21661377 51.90888977 C-79.26973905 44.15186809 -74.59821567 37.60182751 -68.77520752 31.14717102 C-67.72719971 29.97541321 -67.72719971 29.97541321 -66.65802002 28.77998352 C-49.6487147 10.77379584 -24.74884139 -0.00660919 0 0 Z " fill="#0B1A2F" transform="translate(494.77520751953125,469.8528289794922)"/>
<path d="M0 0 C1.77487906 -0.00436232 3.54975625 -0.00955044 5.32463074 -0.01548767 C10.08957598 -0.02872933 14.8544412 -0.02947284 19.61940122 -0.02692437 C23.62678869 -0.02584394 27.63416066 -0.03076538 31.64154476 -0.03552979 C41.11455759 -0.04657494 50.58753075 -0.04709145 60.06054688 -0.04101562 C69.76255769 -0.03498753 79.46442305 -0.04726884 89.16640908 -0.06858569 C97.55776076 -0.08633015 105.9490667 -0.09218281 114.3404364 -0.08894795 C119.32483792 -0.08715439 124.30913582 -0.0895741 129.29351997 -0.10366249 C188.79222401 -0.25733047 239.86351338 11.16341827 283.58764648 54.0871582 C289.81787683 60.34093749 295.20111462 67.20113588 300.46264648 74.2746582 C301.0981543 75.11512695 301.73366211 75.9555957 302.38842773 76.8215332 C326.92117024 110.43421029 336.26047627 149.51628788 335.98413086 190.55297852 C335.96138749 193.96011753 335.97485867 197.36600225 335.9979248 200.77309799 C336.09468619 217.73463657 335.56799559 234.71890779 331.46264648 251.2746582 C330.46264648 252.2746582 330.46264648 252.2746582 327.04443359 252.38818359 C325.5262766 252.38802448 324.0081142 252.38233046 322.48999023 252.37231445 C321.69234756 252.37089951 320.8947049 252.36948456 320.07289124 252.36802673 C317.51527213 252.36241137 314.95773931 252.34985632 312.40014648 252.3371582 C310.67033004 252.33214518 308.94051222 252.32758193 307.21069336 252.32348633 C302.96131095 252.31243695 298.71199337 252.29516207 294.46264648 252.2746582 C294.92245574 248.05953911 295.48613954 243.96115658 296.42211914 239.82470703 C299.38095015 226.59189807 300.02511703 213.88686958 299.87426758 200.35253906 C299.83749377 196.94802007 299.833252 193.54459094 299.83374023 190.13989258 C299.69899768 148.09830758 286.47611582 110.15241094 256.52514648 79.8996582 C226.70187161 50.66051267 188.99493077 38.11525052 147.73901367 38.12939453 C145.97997467 38.12639645 144.22093631 38.12299244 142.4618988 38.11921692 C137.71581515 38.11043911 132.96974955 38.10804145 128.22365856 38.10740113 C125.24983473 38.10668713 122.2760154 38.10454621 119.30219269 38.10190392 C108.90303764 38.0926713 98.50389534 38.08856644 88.10473633 38.08935547 C78.45042014 38.0899558 68.7961599 38.0794073 59.14185786 38.06361181 C50.81956369 38.05048659 42.49728769 38.04517365 34.17498326 38.04581088 C29.2193042 38.04606439 24.26367493 38.04329501 19.30800629 38.03263283 C14.64247658 38.02286745 9.97704344 38.02292975 5.31151009 38.03014946 C3.61213348 38.03118488 1.91275058 38.02889551 0.21338463 38.022789 C-13.65118553 37.9762466 -27.3986102 38.71984998 -40.84985352 42.3996582 C-41.63126709 42.61066162 -42.41268066 42.82166504 -43.21777344 43.0390625 C-81.1331649 53.78169364 -112.56506983 78.9902131 -132.14038086 112.96875 C-146.54313201 138.82647734 -151.09694693 165.40196951 -150.98339844 194.79174805 C-150.97487926 198.13954114 -151.00380052 201.48562528 -151.03540039 204.83325195 C-151.15604251 241.83588912 -139.73574346 275.99630716 -115.53735352 304.2746582 C-114.50868164 305.48702148 -114.50868164 305.48702148 -113.45922852 306.72387695 C-98.17582727 324.23381687 -79.1223894 338.06178217 -57.28735352 346.2746582 C-49.59675681 349.27436125 -43.53382626 353.97745494 -39.53735352 361.2746582 C-35.19481474 371.61403624 -37.68375076 383.96639365 -39.53735352 394.6496582 C-41.25113969 404.40750442 -41.25113969 404.40750442 -41.53735352 414.2746582 C-22.52641669 402.605213 -4.15158824 390.31610487 13.97973633 377.32739258 C16.24714972 375.70461714 18.51911611 374.08826503 20.79077148 372.47143555 C22.49029864 371.25486397 24.17956357 370.02486461 25.86889648 368.79418945 C26.98316191 367.99556863 28.09773352 367.19737478 29.21264648 366.3996582 C30.17686523 365.70098633 31.14108398 365.00231445 32.13452148 364.2824707 C40.34340117 359.33016535 47.43623992 357.6862153 56.97094727 357.82055664 C58.074561 357.81997253 59.17817474 357.81938843 60.31523132 357.81878662 C63.92980412 357.82155295 67.54353188 357.85257733 71.15795898 357.8840332 C73.67714996 357.89150072 76.19634678 357.89719124 78.71554565 357.90118408 C84.64752172 357.91484833 90.5792308 357.94630985 96.51107013 357.98658204 C103.27050225 358.03146573 110.02994949 358.05332825 116.7894938 358.07336378 C130.68073993 358.11504816 144.57160972 358.1883331 158.46264648 358.2746582 C158.46264648 370.4846582 158.46264648 382.6946582 158.46264648 395.2746582 C155.33948975 395.26829346 152.21633301 395.26192871 148.99853516 395.25537109 C138.65277838 395.23939306 128.30735946 395.26191185 117.96168041 395.30312443 C111.69205986 395.3269273 105.42296977 395.33796454 99.15332031 395.31933594 C93.09699381 395.30181902 87.04161796 395.31847762 80.98540688 395.35833549 C78.68070424 395.36759391 76.37591873 395.36476117 74.07124901 395.34935188 C56.89852014 394.97875376 56.89852014 394.97875376 42.46264648 403.2746582 C40.95837415 404.30446246 39.44183899 405.31683995 37.90795898 406.30200195 C36.46760003 407.27167568 35.02749838 408.24173171 33.58764648 409.2121582 C26.3157994 414.07887574 18.97181429 418.78084934 11.46264648 423.2746582 C10.6740625 423.75016113 9.88547852 424.22566406 9.07299805 424.71557617 C-10.90172524 436.74706967 -30.98455375 447.33305715 -52.53735352 456.2746582 C-53.41609131 456.64034912 -54.2948291 457.00604004 -55.20019531 457.3828125 C-60.07945595 459.24470941 -64.91879231 458.83492939 -69.78735352 457.1496582 C-73.96705241 454.2998635 -76.90599675 451.1687285 -78.53735352 446.2746582 C-79.32345817 434.52844064 -78.20146174 422.78317815 -77.16235352 411.0871582 C-77.09922974 410.36962372 -77.03610596 409.65208923 -76.97106934 408.91281128 C-76.08790895 398.99281547 -74.93169158 389.13615443 -73.53735352 379.2746582 C-74.66886841 379.0734436 -74.66886841 379.0734436 -75.82324219 378.86816406 C-79.44471847 378.07624099 -82.56743698 376.50443649 -85.84985352 374.8371582 C-86.54916992 374.48226318 -87.24848633 374.12736816 -87.96899414 373.76171875 C-120.19211894 357.10565189 -147.37685848 331.36173768 -164.53735352 299.2746582 C-164.96757812 298.47415039 -165.39780273 297.67364258 -165.84106445 296.84887695 C-176.06637748 277.4868222 -184.61684409 255.95513423 -186.31860352 233.95043945 C-186.367613 231.303432 -186.367613 231.303432 -187.53735352 229.2746582 C-187.64369614 227.45112015 -187.6861727 225.62371383 -187.69848633 223.79711914 C-187.70809387 222.64701355 -187.71770142 221.49690796 -187.7276001 220.31195068 C-187.73184998 219.05698792 -187.73609985 217.80202515 -187.74047852 216.5090332 C-187.74617859 215.21008118 -187.75187866 213.91112915 -187.75775146 212.57281494 C-187.76828281 209.80529389 -187.77410657 207.03780195 -187.77758789 204.27026367 C-187.78191671 201.47553037 -187.79557918 198.68111555 -187.81860352 195.88647461 C-187.9898454 174.64960669 -187.84316409 153.61006542 -180.72485352 133.3371582 C-180.37084473 132.28778076 -180.01683594 131.23840332 -179.65209961 130.15722656 C-178.63855386 127.18695532 -177.59471578 124.22956565 -176.53735352 121.2746582 C-176.14459229 120.15124023 -176.14459229 120.15124023 -175.74389648 119.00512695 C-159.58924493 73.26137136 -121.85230242 36.13688767 -78.73950195 15.2902832 C-68.51359193 10.57412071 -57.89615785 7.15702551 -46.97485352 4.4621582 C-45.80937988 4.16970215 -45.80937988 4.16970215 -44.62036133 3.87133789 C-29.95155301 0.48622828 -14.98390403 -0.02482747 0 0 Z " fill="#516AFC" transform="translate(505.537353515625,373.725341796875)"/>
<path d="M0 0 C1.49905632 -0.00856522 1.49905632 -0.00856522 3.02839661 -0.01730347 C4.12398895 -0.01842133 5.2195813 -0.01953918 6.34837341 -0.02069092 C7.50317703 -0.02565582 8.65798065 -0.03062073 9.84777832 -0.03573608 C13.67928153 -0.05037444 17.51074328 -0.05716377 21.3422699 -0.06268311 C23.33164012 -0.06698112 25.32101035 -0.07127965 27.3103804 -0.07565761 C32.85792862 -0.08747157 38.40546683 -0.09500643 43.95302635 -0.09845281 C51.10987379 -0.10292398 58.26652932 -0.12042686 65.42331845 -0.1494534 C70.96489457 -0.17114226 76.50641701 -0.18116103 82.04803509 -0.18249393 C85.35269142 -0.1835375 88.65712745 -0.19081519 91.96174812 -0.20731354 C95.65717542 -0.22444058 99.35214086 -0.22247679 103.04759216 -0.21600342 C104.12901489 -0.2252182 105.21043762 -0.23443298 106.32463074 -0.243927 C120.9019028 -0.16426624 133.215097 5.53240508 143.79148865 15.51934814 C154.15716496 27.03485941 158.27685834 39.70951822 158.3278656 54.87701416 C158.3344368 55.73482986 158.341008 56.59264557 158.34777832 57.47645569 C158.3674172 60.30325424 158.37915476 63.12999982 158.3891449 65.95684814 C158.39322042 66.92805037 158.39729595 67.89925259 158.40149498 68.89988518 C158.4223187 74.04362649 158.43663468 79.18734145 158.44602966 84.33111572 C158.45706807 89.61426112 158.49144912 94.89698236 158.53120136 100.17997837 C158.55748776 104.26808902 158.56573227 108.35610055 158.56931114 112.44428825 C158.57414843 114.39012443 158.58567964 116.33595705 158.60434914 118.28170967 C158.70367816 129.32267087 158.36556969 138.78171559 154.15086365 149.14044189 C153.79345596 150.04021255 153.43604828 150.93998322 153.06781006 151.86701965 C148.40045849 162.99837938 138.84965974 171.92016725 128.15086365 177.14044189 C126.99586365 177.71794189 125.84086365 178.29544189 124.65086365 178.89044189 C116.52231601 181.79349462 108.57742088 182.43667837 100.00071716 182.4151001 C98.93427979 182.42021103 97.86784241 182.42532196 96.76908875 182.43058777 C93.27259074 182.44439468 89.77629179 182.44353386 86.2797699 182.44122314 C83.83176603 182.44511461 81.38376283 182.44945021 78.9357605 182.45420837 C73.8159516 182.46165121 68.6962117 182.4613931 63.57640076 182.45611572 C57.03548912 182.45032011 50.49486056 182.4672641 43.9539957 182.4904604 C38.90175747 182.50523419 33.84958687 182.50606452 28.79733086 182.50295067 C26.38654456 182.50346192 23.97575428 182.50866265 21.56498909 182.51876259 C18.18661011 182.53118196 14.80877577 182.52430233 11.43040466 182.51275635 C10.44773117 182.52040009 9.46505768 182.52804382 8.4526062 182.53591919 C-6.50879442 182.42363654 -19.89770858 176.7726456 -30.66944885 166.41387939 C-41.52143969 155.09513627 -45.96165997 142.54329941 -46.04200745 127.03082275 C-46.05018494 126.1452066 -46.05836243 125.25959045 -46.06678772 124.34713745 C-46.09147909 121.43319343 -46.10811799 118.51929767 -46.12257385 115.60528564 C-46.12789753 114.60315096 -46.13322121 113.60101627 -46.13870621 112.56851387 C-46.1653703 107.26152438 -46.18476458 101.95455784 -46.19923401 96.64752197 C-46.21255025 92.28012037 -46.24037054 87.91318849 -46.28126526 83.54595947 C-46.33086711 78.24693232 -46.35538838 72.9483296 -46.36246109 67.64908028 C-46.3691273 65.64264851 -46.3842266 63.63622448 -46.4083519 61.62992668 C-46.60854055 43.97157791 -43.83247513 29.49186784 -31.73976135 15.74200439 C-23.94814437 8.08111924 -11.19885391 0.03832726 0 0 Z " fill="#1A283B" transform="translate(723.8491363525391,638.8595581054688)"/>
<path d="M0 0 C3.81721664 2.39685696 6.03655062 4.46704221 7.6875 8.6875 C7.87282495 11.35151115 7.94877325 13.90867586 7.92800903 16.57147217 C7.92971788 17.37118258 7.93142673 18.17089299 7.93318737 18.99483705 C7.93648435 21.67731295 7.92547514 24.35953929 7.91455078 27.04199219 C7.91398671 28.96373997 7.91430314 30.88548819 7.91543579 32.80723572 C7.91601047 38.02794437 7.90423744 43.24856144 7.89028788 48.46924877 C7.87779978 53.92385076 7.87661153 59.37845477 7.87423706 64.83306885 C7.86801664 75.16379358 7.85159821 85.49447608 7.83153808 95.8251822 C7.80919657 107.58562571 7.79819005 119.34607122 7.78814721 131.10653067 C7.76723248 155.30021055 7.73204558 179.49385291 7.6875 203.6875 C7.0275 203.6875 6.3675 203.6875 5.6875 203.6875 C5.625625 204.265 5.56375 204.8425 5.5 205.4375 C4.35039022 208.62103478 2.43073838 209.79335921 -0.3125 211.6875 C-4.0575359 212.9358453 -7.43067998 213.33447 -11.3125 212.6875 C-15.28628129 210.68514717 -17.84816815 208.38399778 -20.3125 204.6875 C-20.51021677 202.03808529 -20.59074961 199.49349059 -20.57992554 196.84353638 C-20.58445665 196.03595756 -20.58898776 195.22837875 -20.59365618 194.39632785 C-20.6063511 191.68099039 -20.60467655 188.9658522 -20.60302734 186.25048828 C-20.60900942 184.30744162 -20.61581422 182.36439733 -20.62338257 180.4213562 C-20.64108246 175.13623006 -20.64573963 169.85116863 -20.64701414 164.56601572 C-20.64891097 160.15735718 -20.65626602 155.74871379 -20.66335833 151.34006107 C-20.67965506 140.94040403 -20.68452611 130.54078162 -20.68310547 120.14111328 C-20.6819037 109.4057306 -20.70300971 98.67054885 -20.7345928 87.93521702 C-20.76072571 78.7249539 -20.77147402 69.51475652 -20.77019465 60.30445659 C-20.76968414 54.80064835 -20.77541658 49.29701861 -20.79655075 43.79324722 C-20.81588284 38.617267 -20.81609207 33.44163646 -20.80151749 28.26564407 C-20.79942203 26.36491893 -20.80417394 24.4641722 -20.8162384 22.56348419 C-20.83163297 19.97038599 -20.82242164 17.37850222 -20.80697632 14.78543091 C-20.81726344 14.03163371 -20.82755057 13.27783652 -20.83814943 12.50119698 C-20.77355318 7.60030623 -19.77257671 5.1433787 -16.3125 1.6875 C-11.18980675 -2.43911401 -5.86004801 -2.32190581 0 0 Z " fill="#3284FA" transform="translate(938.3125,447.3125)"/>
<path d="M0 0 C3.68609396 2.31284327 7.03178226 5.06356452 9 9 C9.09848863 10.49642009 9.13503444 11.99713249 9.14044189 13.4967804 C9.14900711 14.9162648 9.14900711 14.9162648 9.15774536 16.36442566 C9.15886322 17.40601334 9.15998108 18.44760101 9.16113281 19.52075195 C9.16609772 20.61516602 9.17106262 21.70958008 9.17617798 22.8371582 C9.19082666 26.4708722 9.19760622 30.10454253 9.203125 33.73828125 C9.20887435 36.2569326 9.21463211 38.77558392 9.22039795 41.29423523 C9.22957018 45.90480644 9.23586727 50.51536449 9.2388947 55.12594253 C9.24337369 61.909871 9.26091313 68.69359782 9.2898953 75.47746497 C9.31412867 81.35395854 9.32183964 87.23038488 9.32357025 93.10692406 C9.32660099 95.60640752 9.33464359 98.10589005 9.34775543 100.60534096 C9.36478236 104.10073806 9.36294357 107.59564287 9.35644531 111.09106445 C9.3656601 112.12657944 9.37487488 113.16209442 9.3843689 114.22898865 C9.33318419 123.00415697 9.33318419 123.00415697 6 127 C2.27613702 130.35147668 -0.27302923 131.83707823 -5.3125 132.3125 C-10.63143008 131.86174321 -13.29375003 129.55563277 -17.14343262 126.04577637 C-19.93805567 121.46108047 -19.55825542 117.22756865 -19.51757812 111.95507812 C-19.5245874 110.84071884 -19.53159668 109.72635956 -19.53881836 108.57823181 C-19.55641966 104.89565087 -19.54476721 101.21383873 -19.53125 97.53125 C-19.53394428 94.9720444 -19.53782616 92.41283979 -19.54284668 89.8536377 C-19.54874467 84.49036975 -19.54055057 79.1273772 -19.52148438 73.76416016 C-19.49971639 67.5695295 -19.50676818 61.37542549 -19.52879 55.18080759 C-19.54915026 49.21403538 -19.54696845 43.24742637 -19.53526306 37.28062439 C-19.53259347 34.74486721 -19.53587365 32.2090966 -19.54518127 29.6733551 C-19.55533238 26.13018111 -19.53986408 22.58802034 -19.51757812 19.04492188 C-19.52567505 17.99541855 -19.53377197 16.94591522 -19.54211426 15.86460876 C-19.45907751 8.74365188 -19.45907751 8.74365188 -17.10046387 4.92297363 C-11.8687517 0.13334373 -7.06794042 -1.54209609 0 0 Z " fill="#36A8E7" transform="translate(985,489)"/>
<path d="M0 0 C4.6314797 2.53420588 8.31032562 4.93097685 10 10 C10.09625665 11.39511177 10.13911296 12.79429799 10.14717102 14.19270325 C10.15432632 15.04639999 10.16148163 15.90009674 10.16885376 16.77966309 C10.17288712 18.18000793 10.17288712 18.18000793 10.17700195 19.60864258 C10.18357315 20.5943071 10.19014435 21.57997162 10.19691467 22.59550476 C10.21664782 25.86184768 10.2283097 29.12814464 10.23828125 32.39453125 C10.24235678 33.50961248 10.2464323 34.62469372 10.25063133 35.77356529 C10.27149108 41.67431834 10.28579383 47.57504813 10.29516602 53.47583008 C10.30623656 59.57245198 10.34064452 65.66870952 10.38033772 71.76520252 C10.4064714 76.45180443 10.41485493 81.13831904 10.41844749 85.82498741 C10.423321 88.07246044 10.43495662 90.31992938 10.45348549 92.56733131 C10.47780953 95.71290688 10.47692404 98.85753318 10.4699707 102.00317383 C10.48278076 102.93066437 10.49559082 103.85815491 10.50878906 104.81375122 C10.46404481 110.36927447 9.76228148 113.62331427 6 118 C1.23310522 121.25015553 -2.41200683 121.53218983 -8 121 C-12.34000485 119.18325378 -15.66630635 116.08749635 -18 112 C-18.71336238 108.6785184 -18.6740216 105.43798311 -18.63110352 102.05078125 C-18.63825882 101.06467865 -18.64541412 100.07857605 -18.65278625 99.06259155 C-18.66965624 95.81208576 -18.65027966 92.56296241 -18.62890625 89.3125 C-18.6297351 87.04858283 -18.63219508 84.78466571 -18.63621521 82.52075195 C-18.63907207 77.77960055 -18.62438228 73.03892186 -18.59692383 68.29785156 C-18.56284188 62.22475311 -18.56886068 56.15249986 -18.5875864 50.07936096 C-18.59816183 45.40556817 -18.5892135 40.73197158 -18.57420158 36.05819702 C-18.56902334 33.81912824 -18.56949722 31.58003895 -18.57574654 29.3409729 C-18.58120508 26.20994099 -18.56080187 23.0801134 -18.53344727 19.94921875 C-18.53997314 19.02644135 -18.54649902 18.10366394 -18.55322266 17.15292358 C-18.47093941 11.60578875 -17.71530375 8.38951456 -14 4 C-9.53814772 0.14658212 -5.74398955 -1.15796995 0 0 Z " fill="#3977FC" transform="translate(887,493)"/>
<path d="M0 0 C3.39842112 0.7996285 4.37592547 1.55167296 6.90039062 3.83203125 C7.95734131 4.78505127 7.95734131 4.78505127 9.03564453 5.75732422 C14.61378387 10.92283061 20.05020595 16.22731978 25.46289062 21.56542969 C26.95327225 23.02898706 28.45077076 24.48533019 29.95507812 25.93457031 C32.14331629 28.04391023 34.30787946 30.17517603 36.46875 32.3125 C37.1436145 32.95437256 37.818479 33.59624512 38.51379395 34.25756836 C41.62831227 37.38575848 43.05355176 38.98511039 43.83227539 43.43188477 C43.09962508 47.20221811 42.26236689 48.56511909 39.58984375 51.27734375 C38.76726074 52.12796387 37.94467773 52.97858398 37.09716797 53.85498047 C36.12748244 54.82019176 35.15757891 55.78518408 34.1875 56.75 C33.07436882 57.88429067 31.96262005 59.01993915 30.85205078 60.15673828 C27.80654356 63.26223538 24.73633117 66.34191169 21.65551758 69.41235352 C19.72553217 71.33689886 17.80105268 73.26683759 15.87695312 75.19726562 C14.64875866 76.42480059 13.42025474 77.65202602 12.19140625 78.87890625 C11.61749649 79.45484024 11.04358673 80.03077423 10.45228577 80.62416077 C5.43830395 85.60839955 5.43830395 85.60839955 0.875 86.125 C-2.8125 85.75 -2.8125 85.75 -5.75 83.75 C-7.92665809 80.58395187 -8.37590677 78.66072483 -8.26321411 74.8458252 C-7.40698666 70.86435887 -4.57526816 68.63677559 -1.65234375 65.984375 C-1.02848282 65.38369202 -0.40462189 64.78300903 0.23814392 64.16412354 C2.2239704 62.255894 4.23416931 60.37646759 6.25 58.5 C8.26649396 56.60670021 10.27655351 54.70791666 12.27256775 52.79302979 C13.51304716 51.60442378 14.76589018 50.42856373 16.03175354 49.26702881 C17.93598777 47.50898173 17.93598777 47.50898173 20.1875 44.75 C19.73971861 40.62992938 17.53965548 38.76315836 14.625 35.9375 C13.71878906 35.05707031 12.81257812 34.17664063 11.87890625 33.26953125 C9.02595026 30.59876693 6.11071627 28.02377607 3.14453125 25.48046875 C-7.59252365 15.98642619 -7.59252365 15.98642619 -8.1875 9.9375 C-8.13696428 6.46948597 -7.81903823 5.75923045 -5.6875 2.75 C-2.8125 0.75 -2.8125 0.75 0 0 Z " fill="#3BD9BA" transform="translate(726.8125,680.25)"/>
<path d="M0 0 C10.62776663 5.36831406 18.84044321 13.67562652 22.65405273 25.11645508 C23.53198982 34.54348446 23.53198982 34.54348446 21.15405273 38.80395508 C17.59022606 40.67496408 14.59229768 40.89438001 10.65405273 40.11645508 C7.17314883 37.91798946 6.71829883 36.39179549 5.77905273 32.36645508 C5.62952148 31.67551758 5.47999023 30.98458008 5.32592773 30.27270508 C3.83188338 25.47786505 0.77721966 21.50915625 -3.41235352 18.76098633 C-10.64698607 15.07039109 -17.2482185 14.28173659 -25.34594727 15.11645508 C-28.5467784 16.26772176 -30.82770986 17.85119129 -33.34594727 20.11645508 C-33.91055664 20.6243457 -34.47516602 21.13223633 -35.05688477 21.65551758 C-38.91278442 25.62427283 -40.38544257 29.52757737 -41.60766602 34.88208008 C-42.45256888 37.43914059 -43.17089502 38.53778813 -45.34594727 40.11645508 C-49.53160312 40.97208639 -53.21402236 40.77904526 -56.90844727 38.61645508 C-59.47919302 34.14559289 -58.88053293 30.26112418 -57.68579102 25.46801758 C-54.26338286 14.88966511 -47.76721714 6.99520532 -38.34594727 1.11645508 C-25.27476879 -5.12508007 -13.19169583 -6.13732997 0 0 Z " fill="#38D6B7" transform="translate(520.345947265625,550.883544921875)"/>
<path d="M0 0 C6.79709032 5.28152289 13.11470045 14.56880412 14.2578125 23.1953125 C14.36080056 29.85864001 14.36080056 29.85864001 12.484375 33.28515625 C8.65432962 35.34030255 5.17032986 35.42892427 0.921875 34.66015625 C-2.40285372 32.11119756 -3.03931724 27.7803698 -4.2734375 23.90625 C-6.39097358 17.99565173 -9.67163737 14.68778932 -15.078125 11.66015625 C-21.68701935 8.72286987 -29.1731554 8.83176476 -36.09375 10.76953125 C-41.62611623 13.25256176 -46.64513746 18.11835131 -49.078125 23.66015625 C-49.60057831 25.69772416 -50.06690725 27.72509456 -50.453125 29.79296875 C-51.24144473 32.14807396 -52.09461757 33.169137 -54.078125 34.66015625 C-57.150876 35.33921725 -59.98911906 35.22229967 -63.078125 34.66015625 C-65.703125 32.84765625 -65.703125 32.84765625 -67.078125 29.66015625 C-67.81203428 19.9475696 -63.89774151 11.90342689 -57.953125 4.47265625 C-41.28945706 -13.4226741 -19.40875023 -12.51353633 0 0 Z " fill="#3AD7B9" transform="translate(683.078125,556.33984375)"/>
<path d="M0 0 C4.36198551 1.96102938 7.33676721 4.00515082 10 8 C10.26069641 9.92160034 10.26069641 9.92160034 10.2746582 12.11669922 C10.28895622 13.35345901 10.28895622 13.35345901 10.30354309 14.61520386 C10.30263168 15.50273346 10.30172028 16.39026306 10.30078125 17.3046875 C10.30506638 18.22081818 10.3093515 19.13694885 10.31376648 20.08084106 C10.31950999 22.01921767 10.32000989 23.95761583 10.31567383 25.89599609 C10.31251937 28.85682145 10.3359535 31.81664235 10.36132812 34.77734375 C10.36360171 36.66145707 10.36430434 38.54557308 10.36328125 40.4296875 C10.372491 41.31316864 10.38170074 42.19664978 10.39118958 43.10690308 C10.35521591 47.90515598 10.10811344 51.09863805 7 55 C3.0139742 58.48777258 -0.55981943 59.36537592 -5.87109375 59.27734375 C-9.7207242 58.77583226 -11.87360797 57.32946857 -15 55 C-18.23342537 49.99898763 -18.44177729 45.81390948 -18.3984375 40.05859375 C-18.40274277 38.7906472 -18.40274277 38.7906472 -18.40713501 37.49708557 C-18.40916842 35.71785814 -18.4036893 33.93860798 -18.39111328 32.15942383 C-18.37502878 29.44236165 -18.39099638 26.72678232 -18.41015625 24.00976562 C-18.40817408 22.2760384 -18.40433095 20.54231209 -18.3984375 18.80859375 C-18.40451019 18.00014511 -18.41058289 17.19169647 -18.4168396 16.35874939 C-18.33824089 10.03306029 -16.7418968 6.866318 -12.375 2.1875 C-8.5120477 -0.82445539 -4.70066798 -1.00671979 0 0 Z " fill="#39D3C2" transform="translate(1032,526)"/>
<path d="M0 0 C1.31282959 -0.00478363 2.62565918 -0.00956726 3.97827148 -0.01449585 C6.75241627 -0.02185236 9.52575402 -0.01120336 12.29980469 0.01220703 C15.84779598 0.04069678 19.39389627 0.02428586 22.94181824 -0.00565529 C26.33636196 -0.02811455 29.73040261 -0.01236908 33.125 0 C34.39593506 -0.01012115 35.66687012 -0.02024231 36.97631836 -0.03067017 C46.76443934 0.09954413 46.76443934 0.09954413 49.86083984 3.07666016 C51.48899834 5.55230201 52.24635732 6.74473959 52.1875 9.6640625 C52.20683594 10.623125 52.20683594 10.623125 52.2265625 11.6015625 C51.14461573 14.96196188 49.60065371 16.95890185 46.5625 18.6640625 C42.00670842 19.43820558 37.48282524 19.36414197 32.87109375 19.328125 C31.52018294 19.3314959 30.1692751 19.3363508 28.81837463 19.34262085 C25.99296066 19.34997711 23.16833915 19.33932734 20.34301758 19.31591797 C16.725439 19.28740102 13.10971278 19.30385677 9.49220181 19.33378029 C6.70479926 19.35186517 3.91783465 19.34609082 1.13041878 19.33314133 C-0.85044945 19.32819604 -2.83133487 19.34334941 -4.81214905 19.35879517 C-6.01697433 19.34303436 -7.22179962 19.32727356 -8.46313477 19.31103516 C-9.52282974 19.30705719 -10.58252472 19.30307922 -11.67433167 19.29898071 C-15.38718508 18.44584476 -16.41950754 16.80696612 -18.4375 13.6640625 C-19.00390625 11.6015625 -19.00390625 11.6015625 -19 9.6640625 C-19.02191406 9.0246875 -19.04382813 8.3853125 -19.06640625 7.7265625 C-16.29785445 -1.35291174 -7.89407925 -0.06286489 0 0 Z " fill="#3BDBBA" transform="translate(791.4375,759.3359375)"/>
<path d="M0 0 C0.495 0.99 0.495 0.99 1 2 C0.113125 2.969375 -0.77375 3.93875 -1.6875 4.9375 C-4.5117059 8.22802827 -6.49899947 11.58014394 -8.51171875 15.40234375 C-11.01159381 19.76564274 -13.99064506 23.80091861 -16.9140625 27.88671875 C-18.90302725 30.85526726 -20.46530812 33.77797216 -22 37 C-22.59039062 38.15757812 -23.18078125 39.31515625 -23.7890625 40.5078125 C-24.40107311 41.71352571 -25.01305201 42.91925501 -25.625 44.125 C-25.93695313 44.73214844 -26.24890625 45.33929688 -26.5703125 45.96484375 C-28.07958439 48.95086011 -29.33017017 51.72062479 -30 55 C-30.44351218 56.42137639 -30.90262471 57.83795344 -31.375 59.25 C-31.64054687 60.0440625 -31.90609375 60.838125 -32.1796875 61.65625 C-32.90019948 63.71485566 -33.68580391 65.72736551 -34.5 67.75 C-39.18475212 80.111859 -40.89790131 93.89082616 -42 107 C-42.33 107 -42.66 107 -43 107 C-43.33 126.14 -43.66 145.28 -44 165 C-44.33 165 -44.66 165 -45 165 C-45.07052768 157.42661739 -45.12331881 149.85327013 -45.15543652 142.27963066 C-45.17087677 138.76019298 -45.1917002 135.24098512 -45.22631836 131.72167969 C-45.42971539 110.43484672 -45.32407945 89.38743687 -38.1875 69.0625 C-37.83349121 68.01312256 -37.47948242 66.96374512 -37.11474609 65.88256836 C-36.10120034 62.91229712 -35.05736227 59.95490745 -34 57 C-33.60723877 55.87658203 -33.60723877 55.87658203 -33.20654297 54.73046875 C-26.26569407 35.07665607 -14.51562619 15.06058143 0 0 Z " fill="#8D64FA" transform="translate(363,438)"/>
<path d="M0 0 C-2.56923501 2.80518516 -5.48572095 4.803585 -8.625 6.9375 C-9.80000273 7.74142281 -10.97445423 8.54615169 -12.1484375 9.3515625 C-12.77331055 9.77985352 -13.39818359 10.20814453 -14.04199219 10.64941406 C-17.46392337 13.00977856 -20.85622477 15.41191057 -24.25 17.8125 C-24.95616455 18.31112549 -25.6623291 18.80975098 -26.38989258 19.32348633 C-30.17291749 21.99583591 -33.95042707 24.67571364 -37.72265625 27.36328125 C-38.49125977 27.90944092 -39.25986328 28.45560059 -40.05175781 29.01831055 C-41.52541794 30.06562775 -42.99750407 31.11516433 -44.46777344 32.16723633 C-45.4679248 32.87722778 -45.4679248 32.87722778 -46.48828125 33.6015625 C-47.07134033 34.01744629 -47.65439941 34.43333008 -48.25512695 34.86181641 C-50.10787381 36.07036627 -52.00519327 37.04759125 -54 38 C-54.66 37.34 -55.32 36.68 -56 36 C-55.51345947 35.6690332 -55.02691895 35.33806641 -54.52563477 34.99707031 C-45.76803352 29.03488471 -37.02567749 23.05413034 -28.375 16.9375 C-27.69300537 16.45676025 -27.01101074 15.97602051 -26.30834961 15.48071289 C-22.60566272 12.86507734 -18.92611979 10.22127732 -15.265625 7.546875 C-14.48912598 6.98492432 -13.71262695 6.42297363 -12.91259766 5.84399414 C-11.41644713 4.76060232 -9.92624049 3.66894195 -8.44287109 2.56811523 C-7.77336426 2.08544189 -7.10385742 1.60276855 -6.4140625 1.10546875 C-5.8257666 0.67387451 -5.2374707 0.24228027 -4.63134766 -0.20239258 C-3 -1 -3 -1 0 0 Z " fill="#477FFC" transform="translate(544,737)"/>
<path d="M0 0 C0 0.33 0 0.66 0 1 C-1.07378906 1.19335938 -2.14757812 1.38671875 -3.25390625 1.5859375 C-4.69013733 1.84877718 -6.1263334 2.11180824 -7.5625 2.375 C-8.26697266 2.50132812 -8.97144531 2.62765625 -9.69726562 2.7578125 C-14.22381882 3.59220019 -18.57315071 4.7246458 -23 6 C-24.64199355 6.27408857 -26.28800397 6.52543328 -27.9375 6.75 C-43.96992209 9.57925096 -60.00653012 17.87527624 -73.92578125 26.03125 C-74.61027344 26.3509375 -75.29476563 26.670625 -76 27 C-76.66 26.67 -77.32 26.34 -78 26 C-55.14509046 11.49592279 -27.50293846 -0.48250769 0 0 Z " fill="#8A54FA" transform="translate(484,375)"/>
<path d="M0 0 C0.33 0.66 0.66 1.32 1 2 C0.113125 2.969375 -0.77375 3.93875 -1.6875 4.9375 C-4.5117059 8.22802827 -6.49899947 11.58014394 -8.51171875 15.40234375 C-11.01159381 19.76564274 -13.99064506 23.80091861 -16.9140625 27.88671875 C-19.45536026 31.67962945 -21.3507248 35.6123722 -23.28125 39.73828125 C-23.6834375 40.58777344 -24.085625 41.43726563 -24.5 42.3125 C-24.9021875 43.17488281 -25.304375 44.03726563 -25.71875 44.92578125 C-27 47 -27 47 -30 48 C-28.48207461 42.79802866 -26.19419175 38.3255743 -23.5625 33.625 C-23.12510498 32.84205566 -22.68770996 32.05911133 -22.23706055 31.25244141 C-15.93073721 20.15518981 -8.88804747 9.22172843 0 0 Z " fill="#8A49FA" transform="translate(363,438)"/>
<path d="M0 0 C0.33 0 0.66 0 1 0 C1.05075968 7.72295318 1.08575878 15.44586324 1.10986328 23.16894531 C1.11991339 25.79558927 1.1335556 28.42222207 1.15087891 31.04882812 C1.17517028 34.82685098 1.18649319 38.60472573 1.1953125 42.3828125 C1.20563507 43.55490265 1.21595764 44.7269928 1.22659302 45.93460083 C1.22797609 56.0121089 1.22797609 56.0121089 -1 61 C-1.66 61 -2.32 61 -3 61 C-2.86287598 60.11763672 -2.72575195 59.23527344 -2.58447266 58.32617188 C-0.84974219 46.05726351 -0.56416403 33.87645064 -0.375 21.5 C-0.3367132 19.4049336 -0.29765577 17.30988113 -0.2578125 15.21484375 C-0.16301001 10.14334563 -0.07856779 5.07177453 0 0 Z " fill="#65A7FA" transform="translate(806,552)"/>
<path d="M0 0 C1.12775345 0.03541649 1.12775345 0.03541649 2.27828979 0.07154846 C4.68311316 0.14821245 7.08761668 0.23222469 9.4921875 0.31640625 C11.12107802 0.36962422 12.74998422 0.42236464 14.37890625 0.47460938 C18.3752031 0.60383123 22.37122842 0.73964452 26.3671875 0.87890625 C26.3671875 1.53890625 26.3671875 2.19890625 26.3671875 2.87890625 C14.4871875 2.87890625 2.6071875 2.87890625 -9.6328125 2.87890625 C-9.6328125 2.21890625 -9.6328125 1.55890625 -9.6328125 0.87890625 C-6.55406373 -0.66046814 -3.36544553 -0.12406161 0 0 Z " fill="#4797F7" transform="translate(809.6328125,623.12109375)"/>
<path d="M0 0 C0.87987562 2.91839831 1.02344188 5.07316922 0.58227539 8.07983398 C-0.08148439 13.29775111 -0.22275922 18.46739006 -0.31640625 23.72265625 C-0.33718735 24.70874374 -0.35796844 25.69483124 -0.37937927 26.71080017 C-0.44420918 29.82796985 -0.50344684 32.94521608 -0.5625 36.0625 C-0.60574869 38.1894607 -0.64936489 40.31641397 -0.69335938 42.44335938 C-0.79982127 47.62882994 -0.90127157 52.81437666 -1 58 C-1.33 58 -1.66 58 -2 58 C-2.05062165 50.22211479 -2.08570046 42.44427191 -2.10986328 34.66625977 C-2.11993405 32.0191082 -2.13359136 29.37196779 -2.15087891 26.72485352 C-2.17507972 22.92461395 -2.18647228 19.12452119 -2.1953125 15.32421875 C-2.20563507 14.13664474 -2.21595764 12.94907074 -2.22659302 11.72550964 C-2.22674408 10.62459488 -2.22689514 9.52368011 -2.22705078 8.3894043 C-2.231492 7.41899704 -2.23593323 6.44858978 -2.24050903 5.44877625 C-2 3 -2 3 0 0 Z " fill="#B1A5FA" transform="translate(355,533)"/>
<path d="M0 0 C2.63221892 9.11800634 0.6262693 18.86675542 -1 28 C-1.66 27.67 -2.32 27.34 -3 27 C-3.44218238 17.71417006 -1.76773893 9.07018429 0 0 Z " fill="#7C55FA" transform="translate(322,517)"/>
<path d="M0 0 C0.66 0.33 1.32 0.66 2 1 C-1.8637519 5.48729687 -5.75422083 9.86595186 -10 14 C-10.928125 14.928125 -11.85625 15.85625 -12.8125 16.8125 C-13.534375 17.534375 -14.25625 18.25625 -15 19 C-15.66 18.67 -16.32 18.34 -17 18 C-11.65611545 11.66519646 -5.91166188 5.80460966 0 0 Z " fill="#8A47F9" transform="translate(381,419)"/>
<path d="M0 0 C3.16854747 0.57691478 4.78226459 1.41646887 7.015625 3.72265625 C7.54414062 4.26083984 8.07265625 4.79902344 8.6171875 5.35351562 C9.15601563 5.91748047 9.69484375 6.48144531 10.25 7.0625 C10.80429687 7.63033203 11.35859375 8.19816406 11.9296875 8.78320312 C13.29334214 10.18212469 14.64760417 11.59019114 16 13 C15.67 13.99 15.34 14.98 15 16 C12.49599357 13.5248518 9.99748094 11.04423106 7.5 8.5625 C6.78457031 7.85544922 6.06914063 7.14839844 5.33203125 6.41992188 C4.65527344 5.74638672 3.97851562 5.07285156 3.28125 4.37890625 C2.65283203 3.7557251 2.02441406 3.13254395 1.37695312 2.49047852 C0 1 0 1 0 0 Z " fill="#448BF8" transform="translate(755,446)"/>
<path d="M0 0 C0.66 0.33 1.32 0.66 2 1 C2.18451025 14.6332574 2.18451025 14.6332574 1 21 C-1.8202907 16.99561779 -1.00863471 12.87663461 -0.625 8.25 C-0.56828125 7.45722656 -0.5115625 6.66445313 -0.453125 5.84765625 C-0.31216305 3.89768265 -0.1574288 1.94871329 0 0 Z " fill="#5886FB" transform="translate(466,741)"/>
<path d="M0 0 C3.68069887 1.53643852 5.98775204 3.78150945 8.75 6.625 C9.54921875 7.44226563 10.3484375 8.25953125 11.171875 9.1015625 C12.07679688 10.04128906 12.07679688 10.04128906 13 11 C12.34 11.66 11.68 12.32 11 13 C9.16052663 11.21427748 7.32842259 9.42197551 5.5 7.625 C4.71302734 6.86316406 4.71302734 6.86316406 3.91015625 6.0859375 C2.56846819 4.76167396 1.28004185 3.38394135 0 2 C0 1.34 0 0.68 0 0 Z " fill="#40C5AE" transform="translate(720,694)"/>
<path d="M0 0 C0.66 0.33 1.32 0.66 2 1 C2 3 2 3 0.35546875 4.76171875 C-0.35996094 5.39722656 -1.07539063 6.03273438 -1.8125 6.6875 C-2.52019531 7.33074219 -3.22789062 7.97398437 -3.95703125 8.63671875 C-4.63121094 9.08660156 -5.30539062 9.53648437 -6 10 C-6.99 9.67 -7.98 9.34 -9 9 C-6.21000549 5.51250686 -3.74764169 2.49842779 0 0 Z " fill="#32CFAF" transform="translate(480,553)"/>
<path d="M0 0 C2.39774463 4.79548926 3.13245873 7.93313657 3.0625 13.25 C3.05347656 14.14203125 3.04445313 15.0340625 3.03515625 15.953125 C3.02355469 16.62859375 3.01195312 17.3040625 3 18 C2.34 17.67 1.68 17.34 1 17 C0.67 11.39 0.34 5.78 0 0 Z " fill="#368CF9" transform="translate(804,528)"/>
<path d="M0 0 C0.99 0.495 0.99 0.495 2 1 C2.37890625 2.92578125 2.37890625 2.92578125 2.5625 5.3125 C2.75772209 7.72289517 2.9543351 9.84823942 3.65234375 12.16796875 C3.76707031 12.77253906 3.88179688 13.37710938 4 14 C3.34 14.66 2.68 15.32 2 16 C0.80911014 10.61972975 -0.2919519 5.54708616 0 0 Z " fill="#6956FA" transform="translate(319,599)"/>
<path d="M0 0 C2.5 1.375 2.5 1.375 5 3 C5 3.66 5 4.32 5 5 C5.78375 5.2475 6.5675 5.495 7.375 5.75 C10.32317108 7.15389099 10.9024777 8.00675737 12 11 C8.7173068 9.50923566 6.06922559 7.61379679 3.25 5.375 C2.45078125 4.74335938 1.6515625 4.11171875 0.828125 3.4609375 C0.22484375 2.97882813 -0.3784375 2.49671875 -1 2 C-0.67 1.34 -0.34 0.68 0 0 Z " fill="#4C8CF7" transform="translate(743,435)"/>
<path d="M0 0 C0.33 0.99 0.66 1.98 1 3 C-0.02673828 2.75443359 -0.02673828 2.75443359 -1.07421875 2.50390625 C-4.3743278 1.93552966 -7.46554069 1.90369233 -10.8125 1.9375 C-11.97394531 1.94652344 -13.13539063 1.95554687 -14.33203125 1.96484375 C-15.21246094 1.97644531 -16.09289062 1.98804688 -17 2 C-11.97835862 -1.34776092 -5.79334977 -1.68194026 0 0 Z " fill="#2FB39C" transform="translate(666,564)"/>
<path d="M0 0 C1.11353866 3.74626219 0.80746732 5.47543872 -1 9 C-2.625 10.8125 -2.625 10.8125 -4 12 C-4.33 11.34 -4.66 10.68 -5 10 C-4.00390625 7.6171875 -4.00390625 7.6171875 -2.5625 4.875 C-1.85287109 3.50988281 -1.85287109 3.50988281 -1.12890625 2.1171875 C-0.75636719 1.41851562 -0.38382812 0.71984375 0 0 Z " fill="#925DFA" transform="translate(338,474)"/>
<path d="M0 0 C-3.96 1.98 -7.92 3.96 -12 6 C-12.99 5.34 -13.98 4.68 -15 4 C-12.87875034 3.13656176 -10.75286928 2.28449352 -8.625 1.4375 C-6.84996094 0.72400391 -6.84996094 0.72400391 -5.0390625 -0.00390625 C-2 -1 -2 -1 0 0 Z " fill="#9460FA" transform="translate(444,384)"/>
<path d="M0 0 C1.45839897 3.95705456 0.67906093 7.69831388 0.0625 11.75 C-0.03740234 12.44738281 -0.13730469 13.14476562 -0.24023438 13.86328125 C-0.48665873 15.57651726 -0.74240955 17.28840725 -1 19 C-1.33 19 -1.66 19 -2 19 C-2.05394705 16.39555652 -2.09364469 13.79223002 -2.125 11.1875 C-2.14175781 10.44951172 -2.15851563 9.71152344 -2.17578125 8.95117188 C-2.21074628 5.08753574 -2.19397555 3.29096332 0 0 Z " fill="#937CFA" transform="translate(355,533)"/>
<path d="M0 0 C1.17539996 0.92652701 2.34010577 1.86663387 3.5 2.8125 C4.1496875 3.33457031 4.799375 3.85664062 5.46875 4.39453125 C7 6 7 6 7 9 C5.82460004 8.07347299 4.65989423 7.13336613 3.5 6.1875 C2.52546875 5.40439453 2.52546875 5.40439453 1.53125 4.60546875 C0 3 0 3 0 0 Z " fill="#1E444F" transform="translate(735,710)"/>
<path d="M0 0 C1.00109515 3.31070838 1.10356134 6.30084769 1.0625 9.75 C1.05347656 10.73484375 1.04445313 11.7196875 1.03515625 12.734375 C1.02355469 13.48203125 1.01195312 14.2296875 1 15 C0.01 15 -0.98 15 -2 15 C-1.85879286 13.06215735 -1.71187127 11.12473045 -1.5625 9.1875 C-1.48128906 8.10855469 -1.40007812 7.02960937 -1.31640625 5.91796875 C-1 3 -1 3 0 0 Z " fill="#9570F9" transform="translate(322,517)"/>
<path d="M0 0 C0.33 0 0.66 0 1 0 C1.33 2.97 1.66 5.94 2 9 C3.32 8.67 4.64 8.34 6 8 C4.68 9.32 3.36 10.64 2 12 C1.34 11.67 0.68 11.34 0 11 C0 7.37 0 3.74 0 0 Z " fill="#477CFB" transform="translate(462,779)"/>
<path d="M0 0 C0.99 0.33 1.98 0.66 3 1 C-0.465 3.97 -0.465 3.97 -4 7 C-4 4 -4 4 -2 1.8125 C-1.34 1.214375 -0.68 0.61625 0 0 Z " fill="#1B3043" transform="translate(745,752)"/>
<path d="M0 0 C3.93673644 1.31224548 6.22719294 2.91910327 9 6 C4.70042176 5.52226908 2.78280018 4.29813355 0 1 C0 0.67 0 0.34 0 0 Z " fill="#5D86FB" transform="translate(450,721)"/>
<path d="M0 0 C1.625 1.625 1.625 1.625 3 4 C2.1875 7.25 2.1875 7.25 1 10 C0.67 10 0.34 10 0 10 C-1.125 2.25 -1.125 2.25 0 0 Z " fill="#EFF0F2" transform="translate(757,541)"/>
<path d="M0 0 C0.99 0.33 1.98 0.66 3 1 C1.1875 3 1.1875 3 -1 5 C-1.99 5 -2.98 5 -4 5 C-3 2 -3 2 0 0 Z " fill="#1B273B" transform="translate(446,484)"/>
<path d="M0 0 C0.66 0 1.32 0 2 0 C0.60667426 3.36720387 -0.9789286 4.9859524 -4 7 C-4 6.01 -4 5.02 -4 4 C-3.34 4 -2.68 4 -2 4 C-1.34 2.68 -0.68 1.36 0 0 Z " fill="#39CAAB" transform="translate(739,755)"/>
<path d="M0 0 C0 0.33 0 0.66 0 1 C-1.65 1 -3.3 1 -5 1 C-5 1.66 -5 2.32 -5 3 C-6.65 3.66 -8.3 4.32 -10 5 C-8.20177069 -0.39468792 -5.09771267 -0.22656501 0 0 Z " fill="#3BC3A6" transform="translate(730,681)"/>
</svg>
